#Comment line ignore any data following # character 
#Hierarchical Translation and Rotation (.htr) file 
[Header]	
#Header keywords are followed by a single value 
FileType HTR		#Single word string
DataType HTRS		#Translation followed by rotation and scale data
FileVersion 1		#integer
NumSegments 64		#integer
NumFrames 3		#integer
DataFrameRate 30		#integer, data frame rate in this file
EulerRotationOrder ZYX
CalibrationUnits mm
RotationUnits Degrees
GlobalAxisofGravity Y
BoneLengthAxis Y
ScaleFactor 1.00
[SegmentNames&Hierarchy]
#CHILD	PARENT
Pinger_Root GLOBAL
Pelvis Pinger_Root
L_Hip Pelvis
R_Hip Pelvis
Rear_Leg01 Pelvis
Spine1 Pelvis
L_Leg01 L_Hip
L_Leg02 L_Leg01
L_Leg03 L_Leg02
L_Foot L_Leg03
L_Toe1_01 L_Foot
L_Toe2_01 L_Foot
L_Toe3_01 L_Foot
planeAlignerLeft L_Foot
L_Toe1_02 L_Toe1_01
L_Toe1_03 L_Toe1_02
L_Toe2_02 L_Toe2_01
L_Toe2_03 L_Toe2_02
L_Toe3_02 L_Toe3_01
L_Toe3_03 L_Toe3_02
planeLockWeightLeft planeAlignerLeft
R_Leg01 R_Hip
R_Leg02 R_Leg01
R_Leg03 R_Leg02
R_Foot R_Leg03
planeAlignerRight R_Foot
R_Toe1_01 R_Foot
R_Toe2_01 R_Foot
R_Toe3_01 R_Foot
planeLockWeightRight planeAlignerRight
R_Toe1_02 R_Toe1_01
R_Toe1_03 R_Toe1_02
R_Toe2_02 R_Toe2_01
R_Toe2_03 R_Toe2_02
R_Toe3_02 R_Toe3_01
R_Toe3_03 R_Toe3_02
Rear_Leg02 Rear_Leg01
Rear_Leg03 Rear_Leg02
Rear_Leg04 Rear_Leg03
Rear_Foot Rear_Leg04
planeAlignerCenter Rear_Foot
Rear_Toe1_01 Rear_Foot
Rear_Toe2_01 Rear_Foot
Rear_Toe3_01 Rear_Foot
planeLockWeightCenter planeAlignerCenter
Rear_Toe1_02 Rear_Toe1_01
Rear_Toe1_03 Rear_Toe1_02
Rear_Toe2_02 Rear_Toe2_01
Rear_Toe2_03 Rear_Toe2_02
Rear_Toe3_02 Rear_Toe3_01
Rear_Toe3_03 Rear_Toe3_02
Back_Bone Spine1
Head Spine1
Motor_Bone Back_Bone
Ping_Mechanism Back_Bone
BN_LookIK Head
bottomMouth Head
L_Mouth01 Head
L_mouthFront Head
mouthGun Head
R_Mouth01 Head
R_mouthFront Head
TopMouth Head
weapon_bone Head
[BasePosition]
#SegmentName Tx, Ty, Tz, Rx, Ry, Rz, BoneLength
Pinger_Root 0.000000 0.000000 0.000000 -90.000000 0.000000 0.000000 10.000000 
Pelvis 0.000000 0.000000 0.000000 0.000000 0.000000 0.000000 10.000000 
L_Hip 0.000000 0.000000 0.000000 0.000000 0.000000 0.000000 10.000000 
R_Hip 0.000000 0.000000 0.000000 0.000000 0.000000 0.000000 10.000000 
Rear_Leg01 0.000000 0.000000 0.000000 0.000000 0.000000 0.000000 10.000000 
Spine1 0.000000 0.000000 0.000000 0.000000 0.000000 0.000000 10.000000 
L_Leg01 0.000000 0.000000 0.000000 0.000000 0.000000 0.000000 10.000000 
L_Leg02 0.000000 0.000000 0.000000 0.000000 0.000000 0.000000 10.000000 
L_Leg03 0.000000 0.000000 0.000000 0.000000 0.000000 0.000000 10.000000 
L_Foot 0.000000 0.000000 0.000000 0.000000 0.000000 0.000000 10.000000 
L_Toe1_01 0.000000 0.000000 0.000000 0.000000 0.000000 0.000000 10.000000 
L_Toe2_01 0.000000 0.000000 0.000000 0.000000 0.000000 0.000000 10.000000 
L_Toe3_01 0.000000 0.000000 0.000000 0.000000 0.000000 0.000000 10.000000 
planeAlignerLeft 0.000000 0.000000 0.000000 0.000000 0.000000 0.000000 10.000000 
L_Toe1_02 0.000000 0.000000 0.000000 0.000000 0.000000 0.000000 10.000000 
L_Toe1_03 0.000000 0.000000 0.000000 0.000000 0.000000 0.000000 10.000000 
L_Toe2_02 0.000000 0.000000 0.000000 0.000000 0.000000 0.000000 10.000000 
L_Toe2_03 0.000000 0.000000 0.000000 0.000000 0.000000 0.000000 10.000000 
L_Toe3_02 0.000000 0.000000 0.000000 0.000000 0.000000 0.000000 10.000000 
L_Toe3_03 0.000000 0.000000 0.000000 0.000000 0.000000 0.000000 10.000000 
planeLockWeightLeft 0.000000 0.000000 0.000000 0.000000 0.000000 0.000000 10.000000 
R_Leg01 0.000000 0.000000 0.000000 0.000000 0.000000 0.000000 10.000000 
R_Leg02 0.000000 0.000000 0.000000 0.000000 0.000000 0.000000 10.000000 
R_Leg03 0.000000 0.000000 0.000000 0.000000 0.000000 0.000000 10.000000 
R_Foot 0.000000 0.000000 0.000000 0.000000 0.000000 0.000000 10.000000 
planeAlignerRight 0.000000 0.000000 0.000000 0.000000 0.000000 0.000000 10.000000 
R_Toe1_01 0.000000 0.000000 0.000000 0.000000 0.000000 0.000000 10.000000 
R_Toe2_01 0.000000 0.000000 0.000000 0.000000 0.000000 0.000000 10.000000 
R_Toe3_01 0.000000 0.000000 0.000000 0.000000 0.000000 0.000000 10.000000 
planeLockWeightRight 0.000000 0.000000 0.000000 0.000000 0.000000 0.000000 10.000000 
R_Toe1_02 0.000000 0.000000 0.000000 0.000000 0.000000 0.000000 10.000000 
R_Toe1_03 0.000000 0.000000 0.000000 0.000000 0.000000 0.000000 10.000000 
R_Toe2_02 0.000000 0.000000 0.000000 0.000000 0.000000 0.000000 10.000000 
R_Toe2_03 0.000000 0.000000 0.000000 0.000000 0.000000 0.000000 10.000000 
R_Toe3_02 0.000000 0.000000 0.000000 0.000000 0.000000 0.000000 10.000000 
R_Toe3_03 0.000000 0.000000 0.000000 0.000000 0.000000 0.000000 10.000000 
Rear_Leg02 0.000000 0.000000 0.000000 0.000000 0.000000 0.000000 10.000000 
Rear_Leg03 0.000000 0.000000 0.000000 0.000000 0.000000 0.000000 10.000000 
Rear_Leg04 0.000000 0.000000 0.000000 0.000000 0.000000 0.000000 10.000000 
Rear_Foot 0.000000 0.000000 0.000000 0.000000 0.000000 0.000000 10.000000 
planeAlignerCenter 0.000000 0.000000 0.000000 0.000000 0.000000 0.000000 10.000000 
Rear_Toe1_01 0.000000 0.000000 0.000000 0.000000 0.000000 0.000000 10.000000 
Rear_Toe2_01 0.000000 0.000000 0.000000 0.000000 0.000000 0.000000 10.000000 
Rear_Toe3_01 0.000000 0.000000 0.000000 0.000000 0.000000 0.000000 10.000000 
planeLockWeightCenter 0.000000 0.000000 0.000000 0.000000 0.000000 0.000000 10.000000 
Rear_Toe1_02 0.000000 0.000000 0.000000 0.000000 0.000000 0.000000 10.000000 
Rear_Toe1_03 0.000000 0.000000 0.000000 0.000000 0.000000 0.000000 10.000000 
Rear_Toe2_02 0.000000 0.000000 0.000000 0.000000 0.000000 0.000000 10.000000 
Rear_Toe2_03 0.000000 0.000000 0.000000 0.000000 0.000000 0.000000 10.000000 
Rear_Toe3_02 0.000000 0.000000 0.000000 0.000000 0.000000 0.000000 10.000000 
Rear_Toe3_03 0.000000 0.000000 0.000000 0.000000 0.000000 0.000000 10.000000 
Back_Bone 0.000000 0.000000 0.000000 0.000000 0.000000 0.000000 10.000000 
Head 0.000000 0.000000 0.000000 0.000000 0.000000 0.000000 10.000000 
Motor_Bone 0.000000 0.000000 0.000000 0.000000 0.000000 0.000000 10.000000 
Ping_Mechanism 0.000000 0.000000 0.000000 0.000000 0.000000 0.000000 10.000000 
BN_LookIK 0.000000 0.000000 0.000000 0.000000 0.000000 0.000000 10.000000 
bottomMouth 0.000000 0.000000 0.000000 0.000000 0.000000 0.000000 10.000000 
L_Mouth01 0.000000 0.000000 0.000000 0.000000 0.000000 0.000000 10.000000 
L_mouthFront 0.000000 0.000000 0.000000 0.000000 0.000000 0.000000 10.000000 
mouthGun 0.000000 0.000000 0.000000 0.000000 0.000000 0.000000 10.000000 
R_Mouth01 0.000000 0.000000 0.000000 0.000000 0.000000 0.000000 10.000000 
R_mouthFront 0.000000 0.000000 0.000000 0.000000 0.000000 0.000000 10.000000 
TopMouth 0.000000 0.000000 0.000000 0.000000 0.000000 0.000000 10.000000 
weapon_bone 0.000000 0.000000 0.000000 0.000000 0.000000 0.000000 10.000000 
#Beginning of Data. Separated by tabs
#Fr	Tx	Ty	Tz	Rx	Ry	Rz	SF
[Pinger_Root]
26 -2150.145264 -0.000593 0.000000 -0.000075 -0.000000 -0.000020 2150.145264
27 -2211.894531 -0.000610 0.000000 -0.000075 -0.000000 -0.000020 2211.894531
28 -2268.629395 -0.000626 0.000000 -0.000075 -0.000000 -0.000020 2268.629395
[Pelvis]
26 165.283524 -18.314022 4748.829102 37.157242 -70.939384 15.816869 4751.739746
27 181.577148 17.251188 4739.470215 38.003807 -71.156052 15.536305 4742.978516
28 192.473602 56.374199 4724.979004 38.138302 -71.905228 15.757133 4729.233398
[L_Hip]
26 5.766392 125.831482 872.656799 -178.253311 -81.787758 87.381340 881.701050
27 5.766392 125.831482 872.656799 -178.253311 -81.787712 87.381248 881.701050
28 5.766392 125.831482 872.656799 -178.253342 -81.787758 87.381340 881.701050
[R_Hip]
26 5.765438 125.836372 -872.654907 -1.746690 81.787712 87.381248 881.699829
27 5.765438 125.836372 -872.654907 -1.746713 81.787666 87.381149 881.699829
28 5.765438 125.836372 -872.654907 -1.746678 81.787712 87.381248 881.699829
[Rear_Leg01]
26 -192.298416 -925.602966 -0.001907 -174.031174 23.611002 -146.012054 945.367432
27 -192.298416 -925.602966 -0.001907 -171.307175 22.022047 -142.618744 945.367432
28 -192.298416 -925.602966 -0.001907 -169.207779 20.225912 -140.435898 945.367432
[Spine1]
26 290.604584 5.007505 0.000477 -45.568497 5.173884 31.365042 290.647736
27 290.604584 5.007505 0.000477 -45.885963 5.666283 31.168528 290.647736
28 290.604584 5.007505 0.000477 -45.950737 6.266854 30.554947 290.647736
[L_Leg01]
26 761.932007 -0.002384 -0.069261 71.834419 -8.339166 -92.416687 761.932068
27 761.932007 -0.002384 -0.069261 73.879250 -5.427213 -94.056534 761.932068
28 761.932007 -0.002384 -0.069261 78.552925 -4.335862 -97.035889 761.932068
[L_Leg02]
26 1441.140503 -0.000954 -0.000715 -1.180339 0.855173 -109.966698 1441.140503
27 1441.140503 -0.000954 -0.000715 -1.225183 0.826510 -108.412971 1441.140503
28 1441.140503 -0.000954 -0.000715 -1.286184 0.776093 -108.217361 1441.140503
[L_Leg03]
26 1686.963989 -0.000715 -0.000954 0.104742 -0.010114 81.898140 1686.963989
27 1686.963989 -0.000715 -0.000954 0.097523 -0.012602 84.243675 1686.963989
28 1686.963989 -0.000715 -0.000954 0.079492 -0.012754 88.220901 1686.963989
[L_Foot]
26 3041.570068 -30.715107 11.297464 -9.588549 7.583189 94.837227 3041.746094
27 3041.570068 -30.715107 11.297464 -9.208241 9.138089 94.284920 3041.746094
28 3041.570068 -30.715107 11.297464 -8.897628 11.434898 88.746994 3041.746094
[L_Toe1_01]
26 -188.216690 -224.732346 -21.137953 89.005371 2.017826 -146.105515 293.899567
27 -188.216690 -224.732346 -21.137953 88.996071 1.960319 -146.237091 293.899567
28 -188.216690 -224.732346 -21.137953 88.828621 2.413936 -135.904572 293.899567
[L_Toe2_01]
26 200.746536 -219.926590 148.838394 -76.020821 -7.067664 -57.069916 332.896027
27 200.746536 -219.926590 148.838394 -76.015862 -7.216333 -57.001904 332.896027
28 200.746536 -219.926590 148.838394 -76.011070 -7.365013 -56.933880 332.896027
[L_Toe3_01]
26 188.832520 -219.859131 -191.078659 -111.225601 17.590462 -61.671062 347.140900
27 188.832520 -219.859131 -191.078659 -111.127007 17.389177 -61.520329 347.140900
28 188.832520 -219.859131 -191.078659 -111.029076 17.187654 -61.370132 347.140900
[planeAlignerLeft]
26 -108.326477 -786.608521 -77.889389 0.000000 -89.934387 -90.068069 797.843567
27 -105.957344 -786.401184 -76.557472 0.000000 -89.920876 -90.070709 797.191895
28 -105.184471 -786.026794 -72.023331 0.000000 -89.925987 -90.073380 796.297180
[L_Toe1_02]
26 413.761139 0.000477 0.000000 0.001390 -25.201443 0.001390 413.761139
27 413.761139 0.000477 0.000000 0.001389 -25.323084 0.001389 413.761139
28 413.761139 0.000477 0.000000 0.001402 -23.658066 0.001402 413.761139
[L_Toe1_03]
26 464.317322 0.000358 -0.000089 0.002884 41.973244 0.002884 464.317322
27 464.317322 0.000358 -0.000089 0.002929 42.763554 0.002929 464.317322
28 464.317322 0.000358 -0.000089 0.002520 34.476547 0.002520 464.317322
[L_Toe2_02]
26 342.235809 -0.000477 0.000238 0.001181 -77.278290 0.001181 342.235809
27 342.235809 -0.000477 0.000238 0.001181 -77.055099 0.001181 342.235809
28 342.235809 -0.000477 0.000238 0.001181 -76.831932 0.001181 342.235809
[L_Toe2_03]
26 420.210846 -0.000715 0.000000 -179.995789 78.945717 -179.992279 420.210846
27 420.210846 -0.000715 0.000000 -179.995529 79.426216 -179.992004 420.210846
28 420.210846 -0.000715 0.000000 -179.994949 80.303406 -179.991440 420.210846
[L_Toe3_02]
26 329.270111 0.000954 0.000000 0.001179 -78.767685 0.001179 329.270111
27 329.270111 0.000954 0.000000 0.001179 -78.592186 0.001179 329.270111
28 329.270111 0.000954 0.000000 0.001180 -78.416634 0.001180 329.270111
[L_Toe3_03]
26 439.137451 -0.001907 0.000954 -179.989197 84.751450 -179.985703 439.137451
27 439.137451 -0.001907 0.000954 -179.988434 85.053436 -179.984940 439.137451
28 439.137451 -0.001907 0.000954 -179.987564 85.355309 -179.984070 439.137451
[planeLockWeightLeft]
26 1000.000122 -0.000305 -0.000033 -0.011826 -0.004376 0.005620 1000.000122
27 1000.000122 -0.000305 -0.000029 -0.011826 -0.004376 0.005620 1000.000122
28 896.000732 -0.000000 -0.000167 -0.011826 -0.004376 0.005620 896.000793
[R_Leg01]
26 761.455627 -0.001907 -0.000358 107.454071 6.107284 46.589218 761.455688
27 761.455627 -0.001907 -0.000358 107.605408 2.175458 44.908310 761.455688
28 761.455627 -0.001907 -0.000358 108.249588 6.032068 45.818325 761.455688
[R_Leg02]
26 1441.140625 0.000000 -0.000238 -0.454565 -0.033412 -128.040100 1441.140625
27 1441.140625 0.000000 -0.000238 -0.304409 -0.008136 -128.260422 1441.140625
28 1441.140625 0.000000 -0.000238 -0.103742 -0.003667 -118.672554 1441.140625
[R_Leg03]
26 1686.963989 0.000954 0.001431 0.040763 -0.018733 121.415070 1686.963989
27 1686.963989 0.000954 0.001431 0.018598 -0.007719 115.081474 1686.963989
28 1686.963989 0.000954 0.001431 0.005069 -0.004548 112.006966 1686.963989
[R_Foot]
26 3041.560059 -30.531288 -11.204481 39.537601 -50.078255 45.297279 3041.734131
27 3041.560059 -30.531288 -11.204481 40.557556 -49.632656 46.469299 3041.734131
28 3041.560059 -30.531288 -11.204481 41.671341 -48.912212 43.056610 3041.734131
[planeAlignerRight]
26 129.094482 -838.332825 -141.482712 0.000000 -89.923386 -90.052643 859.932983
27 56.840488 -769.226563 -146.162857 0.000000 -89.920876 -90.054550 785.050293
28 -77.342018 -640.901428 -147.161240 0.000000 -89.916069 -90.056450 662.112427
[R_Toe1_01]
26 -188.383347 -224.864899 21.052242 90.932632 2.863282 -149.326263 294.101532
27 -188.383347 -224.864899 21.052242 90.849297 3.007920 -152.668930 294.101532
28 -188.383347 -224.864899 21.052242 90.819855 2.829954 -156.305557 294.101532
[R_Toe2_01]
26 200.637817 -220.002121 -148.787384 -102.361732 -4.599222 -60.457371 332.857574
27 200.637817 -220.002121 -148.787384 -101.790169 -1.022469 -54.646210 332.857574
28 200.637817 -220.002121 -148.787384 -100.879028 5.560514 -44.961460 332.857574
[R_Toe3_01]
26 188.606735 -220.092957 191.126343 -49.995998 -35.935799 -87.965683 347.192566
27 188.606735 -220.092957 191.126343 -52.099766 -36.976242 -82.192390 347.192566
28 188.606735 -220.092957 191.126343 -58.714985 -39.735191 -67.110359 347.192566
[planeLockWeightRight]
26 999.999329 0.000610 -0.000134 -0.011823 -0.004379 -0.000027 999.999329
27 999.999512 0.000605 -0.000142 -0.011823 -0.004379 -0.000027 999.999512
28 999.999512 0.000599 -0.000151 -0.011823 -0.004379 -0.000027 999.999512
[R_Toe1_02]
26 413.762085 0.000477 -0.000119 0.001397 -24.279932 0.001397 413.762085
27 413.762085 0.000477 -0.000119 0.001392 -24.897463 0.001392 413.762085
28 413.762085 0.000477 -0.000119 0.001384 -25.982470 0.001384 413.762085
[R_Toe1_03]
26 464.317810 0.000000 0.001088 0.007450 71.873772 0.007450 464.317810
27 464.317810 0.000000 0.001088 0.006149 67.993042 0.006149 464.317810
28 464.317810 0.000000 0.001088 0.001920 54.774097 0.000073 464.317810
[R_Toe2_02]
26 342.234741 -0.000954 0.000238 -0.002339 -76.476410 -0.002339 342.234741
27 342.234741 -0.000954 0.000238 -0.002339 -76.703262 -0.002339 342.234741
28 342.234741 -0.000954 0.000238 -0.002336 -77.951027 -0.002336 342.234741
[R_Toe2_03]
26 420.210846 0.000715 -0.000268 -179.990326 81.688637 -179.993820 420.210846
27 420.210846 0.000715 -0.000268 -179.991043 80.848007 -179.994553 420.210846
28 420.210846 0.000715 -0.000268 -179.993668 75.539177 -179.997192 420.210846
[R_Toe3_02]
26 329.270355 -0.000477 -0.000954 -0.002376 -65.795952 -0.002376 329.270355
27 329.270355 -0.000477 -0.000954 -0.000582 -73.070152 -0.000582 329.270355
28 329.270355 -0.000477 -0.000954 0.001178 -80.344292 0.001178 329.270355
[R_Toe3_03]
26 439.137939 0.000238 0.001431 0.005604 65.823555 0.005604 439.137939
27 439.137939 0.000238 0.001431 0.013867 80.290375 0.013867 439.137939
28 439.137939 0.000238 0.001431 -179.995728 79.053986 -179.992218 439.137939
[Rear_Leg02]
26 1162.777710 -0.029802 0.005960 -37.987831 11.859874 -138.199570 1162.777710
27 1162.777710 -0.029802 0.005960 -39.081596 12.812864 -134.372360 1162.777710
28 1162.777710 -0.029802 0.005960 -39.985302 13.767641 -131.241470 1162.777710
[Rear_Leg03]
26 607.192505 -0.013351 -0.073195 0.009910 -0.006160 80.082886 607.192505
27 607.192505 -0.013351 -0.073195 0.009913 -0.006155 80.025459 607.192505
28 607.192505 -0.013351 -0.073195 0.009916 -0.006151 79.982437 607.192505
[Rear_Leg04]
26 995.874512 -0.020504 -0.011921 -0.043317 -0.014323 103.285835 995.874573
27 995.874512 -0.020504 -0.011921 -0.044002 -0.013620 102.592018 995.874573
28 995.874512 -0.020504 -0.011921 -0.044695 -0.012925 101.898247 995.874573
[Rear_Foot]
26 3096.176270 -0.067472 -0.041425 85.329239 50.635864 -126.541130 3096.176270
27 3096.176270 -0.067472 -0.041425 86.116135 49.517689 -126.124489 3096.176270
28 3096.176270 -0.067472 -0.041425 86.873260 48.395988 -125.740288 3096.176270
[planeAlignerCenter]
26 9.874535 25.689770 -826.239197 0.001908 -0.001367 161.239731 826.697449
27 9.630128 26.882927 -824.183777 0.001892 -0.001391 162.657867 824.678284
28 9.654058 30.121601 -818.022766 0.001876 -0.001415 164.077530 818.634094
[Rear_Toe1_01]
26 0.653352 83.966492 -371.173737 -0.656991 28.892069 69.807434 380.553192
27 0.653352 83.966492 -371.173737 -0.602284 28.700666 71.242149 380.553192
28 0.653352 83.966492 -371.173737 -0.553157 28.508165 72.673820 380.553192
[Rear_Toe2_01]
26 178.200760 -294.826019 -362.060547 -4.483748 52.962006 -98.509178 499.765686
27 178.200760 -294.826019 -362.060547 -4.174240 52.994946 -96.624924 499.765686
28 178.200760 -294.826019 -362.060547 -3.862954 53.021736 -94.739494 499.765686
[Rear_Toe3_01]
26 -153.359680 -308.780914 -362.060852 -6.181317 53.703236 -139.682632 499.952881
27 -153.359680 -308.780914 -362.060852 -5.826506 53.647175 -137.748474 499.952881
28 -153.359680 -308.780914 -362.060852 -5.475658 53.584076 -135.818069 499.952881
[planeLockWeightCenter]
26 1000.000244 0.000640 -0.000149 -0.011814 -0.004373 -0.000015 1000.000244
27 1000.000244 0.000646 -0.000151 -0.011814 -0.004373 -0.000015 1000.000244
28 1000.000244 0.000651 -0.000154 -0.011814 -0.004373 -0.000015 1000.000244
[Rear_Toe1_02]
26 379.707825 0.194073 0.000477 -0.000562 -33.562786 0.001903 379.707855
27 379.707825 0.194073 0.000477 -0.000772 -33.561638 0.001966 379.707855
28 379.707825 0.194073 0.000477 -0.000983 -33.560493 0.002030 379.707855
[Rear_Toe1_03]
26 500.129700 0.165701 0.000119 0.007035 70.793816 0.007035 500.129761
27 500.129700 0.165701 0.000119 0.007070 70.888397 0.007070 500.129761
28 500.129700 0.165701 0.000119 0.007104 70.982964 0.007104 500.129761
[Rear_Toe2_02]
26 340.494507 0.000238 -0.000954 0.001188 -71.981491 0.001188 340.494507
27 340.494507 0.000238 -0.000954 0.001187 -72.733299 0.001187 340.494507
28 340.494507 0.000238 -0.000954 0.001186 -73.862038 0.001186 340.494507
[Rear_Toe2_03]
26 433.103577 0.000000 0.000238 0.008021 73.172676 0.008021 433.103546
27 433.103577 0.000000 0.000238 0.008637 74.379898 0.008637 433.103546
28 433.103577 0.000000 0.000238 0.009779 76.212196 0.009779 433.103546
[Rear_Toe3_02]
26 340.494141 -0.000358 -0.000477 0.001183 -75.274475 0.001183 340.494171
27 340.494141 -0.000358 -0.000477 0.001183 -75.825066 0.001183 340.494171
28 340.494141 -0.000358 -0.000477 0.001182 -76.375671 0.001182 340.494171
[Rear_Toe3_03]
26 433.103577 0.001431 -0.000238 0.011596 78.382210 0.011596 433.103546
27 433.103577 0.001431 -0.000238 0.012829 79.501541 0.012829 433.103546
28 433.103577 0.001431 -0.000238 0.014355 80.620804 0.014355 433.103546
[Back_Bone]
26 1312.175781 -701.934692 0.000954 1.639044 -2.967064 -83.058784 1488.125488
27 1312.175781 -701.934692 0.000954 1.246442 -2.506928 -82.904045 1488.125488
28 1312.175781 -701.934692 0.000954 0.785626 -1.893625 -83.272209 1488.125488
[Head]
26 1406.159424 809.709290 0.001431 -9.370057 2.984472 3.077447 1622.625488
27 1406.159424 809.709290 0.001431 -9.354561 2.929463 2.777355 1622.625488
28 1406.159424 809.709290 0.001431 -9.338776 2.874538 2.477269 1622.625488
[Motor_Bone]
26 1158.364380 -417.834747 0.000477 -2.188163 -1.022762 -107.007042 1231.419434
27 1158.364380 -417.834747 0.000477 -2.074372 -0.843159 -106.828514 1231.419434
28 1158.364380 -417.834747 0.000477 -1.960022 -0.663910 -106.649628 1231.419434
[Ping_Mechanism]
26 1234.701172 -423.533020 92.710571 0.000103 -0.000053 82.120995 1308.610840
27 1232.952271 -424.687805 90.401009 0.000103 -0.000053 82.120995 1307.173706
28 1231.203369 -425.842590 88.091431 0.000103 -0.000053 82.120995 1305.742554
[BN_LookIK]
26 193.241119 1380.371704 -0.002861 0.000000 89.965736 -31.038179 1393.832153
27 193.241119 1380.371704 -0.002861 0.000000 89.965736 -31.038179 1393.832153
28 193.241119 1380.371704 -0.002861 0.000000 89.965736 -31.038179 1393.832153
[bottomMouth]
26 -435.092926 615.759399 -0.000954 -0.000022 0.000016 73.527184 753.966492
27 -435.092926 615.759399 -0.000954 -0.000022 0.000016 73.527184 753.966492
28 -435.092926 615.759399 -0.000954 -0.000022 0.000016 73.527184 753.966492
[L_Mouth01]
26 554.440979 7.658243 838.222046 150.204178 23.759130 109.605339 1005.027161
27 554.440979 7.658243 838.222046 150.204178 23.759130 109.605339 1005.027161
28 554.440979 7.658243 838.222046 150.204178 23.759130 109.605339 1005.027161
[L_mouthFront]
26 551.629089 934.514771 339.150421 0.000081 2.804060 79.119301 1136.941284
27 551.629089 934.514771 339.150421 0.000081 2.804060 79.119301 1136.941284
28 551.629089 934.514771 339.150421 0.000081 2.804060 79.119301 1136.941284
[mouthGun]
26 55.332661 1627.420898 0.000000 0.000023 0.000009 -11.038128 1628.361328
27 55.332661 1627.420898 0.000000 0.000023 0.000009 -11.038128 1628.361328
28 55.332661 1627.420898 0.000000 0.000023 0.000009 -11.038128 1628.361328
[R_Mouth01]
26 554.442383 7.659197 -838.223938 29.795891 -23.759109 109.605331 1005.029541
27 554.442383 7.659197 -838.223938 29.795891 -23.759109 109.605331 1005.029541
28 554.442383 7.659197 -838.223938 29.795891 -23.759109 109.605331 1005.029541
[R_mouthFront]
26 551.629089 934.514282 -339.151367 0.000029 -2.803930 79.119133 1136.941162
27 551.629089 934.514282 -339.151367 0.000029 -2.803930 79.119133 1136.941162
28 551.629089 934.514282 -339.151367 0.000029 -2.803930 79.119133 1136.941162
[TopMouth]
26 461.269867 -56.106091 -0.008583 -0.000059 -0.000268 92.025169 464.669525
27 461.269867 -56.106091 -0.008583 -0.000059 -0.000268 92.025169 464.669525
28 461.269867 -56.106091 -0.008583 -0.000059 -0.000268 92.025169 464.669525
[weapon_bone]
26 -987.239868 1448.372803 0.001431 0.000000 89.965736 -31.038221 1752.833740
27 -987.239868 1448.372803 0.001431 0.000000 89.965736 -31.038221 1752.833740
28 -987.239868 1448.372803 0.001431 0.000000 89.965736 -31.038221 1752.833740
